<mxfile host="www.draw.io" modified="2020-01-13T09:21:10.184Z" agent="Mozilla/5.0 (X11; Linux x86_64) AppleWebKit/537.36 (KHTML, like Gecko) Chrome/73.0.3683.86 Safari/537.36" etag="_IkR7fMXKaeOKZYCD3L5" version="12.5.1" type="github">
  <diagram id="NLZLTCQ2kzsotbfR8RQm" name="第 1 页">
    <mxGraphModel dx="1106" dy="822" grid="0" gridSize="10" guides="1" tooltips="1" connect="1" arrows="1" fold="1" page="0" pageScale="1" pageWidth="827" pageHeight="1169" math="0" shadow="0">
      <root>
        <mxCell id="0"/>
        <mxCell id="1" parent="0"/>
        <mxCell id="Hb7Wb0ZfLb483x7BZa_l-1" value="数仓" style="shape=datastore;whiteSpace=wrap;html=1;" vertex="1" parent="1">
          <mxGeometry x="-200" y="-8" width="60" height="60" as="geometry"/>
        </mxCell>
        <mxCell id="Hb7Wb0ZfLb483x7BZa_l-7" value="" style="edgeStyle=orthogonalEdgeStyle;rounded=0;orthogonalLoop=1;jettySize=auto;html=1;" edge="1" parent="1" source="Hb7Wb0ZfLb483x7BZa_l-3" target="Hb7Wb0ZfLb483x7BZa_l-6">
          <mxGeometry relative="1" as="geometry"/>
        </mxCell>
        <mxCell id="Hb7Wb0ZfLb483x7BZa_l-3" value="" style="shape=actor;whiteSpace=wrap;html=1;" vertex="1" parent="1">
          <mxGeometry x="65" y="-109" width="40" height="60" as="geometry"/>
        </mxCell>
        <mxCell id="Hb7Wb0ZfLb483x7BZa_l-6" value="infofeed" style="rounded=0;whiteSpace=wrap;html=1;" vertex="1" parent="1">
          <mxGeometry x="25" y="21" width="120" height="60" as="geometry"/>
        </mxCell>
      </root>
    </mxGraphModel>
  </diagram>
</mxfile>
